<mxfile host="app.diagrams.net" modified="2024-07-19T01:34:20.042Z" agent="Mozilla/5.0 (Macintosh; Intel Mac OS X 10_15_7) AppleWebKit/537.36 (KHTML, like Gecko) Chrome/126.0.0.0 Safari/537.36" etag="1ZJYnOIM1HXCAElh5hM0" version="24.7.1" type="github">
  <diagram name="Page-1" id="OH43Q2p7CrI-r2DC9hQY">
    <mxGraphModel dx="2154" dy="1438" grid="1" gridSize="10" guides="1" tooltips="1" connect="1" arrows="1" fold="1" page="1" pageScale="1" pageWidth="1169" pageHeight="827" math="0" shadow="0">
      <root>
        <mxCell id="0" />
        <mxCell id="1" parent="0" />
      </root>
    </mxGraphModel>
  </diagram>
</mxfile>
